<?xml version="1.0" encoding="UTF-8" standalone="no"?>
<svg
   version="1.0"
   width="828.000000pt"
   height="1056.000000pt"
   viewBox="0 0 828.000000 1056.000000"
   preserveAspectRatio="xMidYMid meet"
   id="svg927"
   sodipodi:docname="stammeswappen_loewen.svg"
   xml:space="preserve"
   inkscape:version="1.2.2 (b0a8486541, 2022-12-01)"
   xmlns:inkscape="http://www.inkscape.org/namespaces/inkscape"
   xmlns:sodipodi="http://sodipodi.sourceforge.net/DTD/sodipodi-0.dtd"
   xmlns="http://www.w3.org/2000/svg"
   xmlns:svg="http://www.w3.org/2000/svg"><defs
     id="defs931"><inkscape:path-effect
       effect="bspline"
       id="path-effect2721"
       is_visible="true"
       lpeversion="1"
       weight="33.333333"
       steps="2"
       helper_size="0"
       apply_no_weight="true"
       apply_with_weight="true"
       only_selected="false" /></defs><sodipodi:namedview
     id="namedview929"
     pagecolor="#ffffff"
     bordercolor="#666666"
     borderopacity="1.0"
     inkscape:showpageshadow="2"
     inkscape:pageopacity="0.0"
     inkscape:pagecheckerboard="0"
     inkscape:deskcolor="#d1d1d1"
     inkscape:document-units="pt"
     showgrid="false"
     inkscape:zoom="0.47408296"
     inkscape:cx="594.83261"
     inkscape:cy="572.68458"
     inkscape:window-width="1651"
     inkscape:window-height="1385"
     inkscape:window-x="1785"
     inkscape:window-y="25"
     inkscape:window-maximized="0"
     inkscape:current-layer="g3118" /><g
     transform="translate(0.000000,1056.000000) scale(0.100000,-0.100000)"
     fill="#000000"
     stroke="none"
     id="g925"><path
       id="path2730"
       d="M 2165 9885 C 2160 9883 2143 9879 2129 9876 C 2115 9873 2092 9860 2078 9848 C 2065 9835 2025 9800 1990 9770 C 1955 9740 1910 9699 1890 9680 C 1870 9661 1827 9621 1794 9591 C 1481.0003 9307.0003 418.99997 8254.9999 391 8203 C 373.00002 8169 374.00002 8100 392 8068 C 403.99999 8044 461.00004 7973 505 7926 C 515.99999 7915 537.00001 7889 551 7870 C 565.99999 7851 592.00002 7819 609 7800 C 662.99995 7741.0001 705.00002 7667.9999 727 7595 C 765.99996 7465.0001 769.99999 7435.9999 759 7373 C 752.00001 7336 750 7258.9999 755 7160 C 773.99998 6709.0005 779.00001 6571.9996 789 6215 C 799.99999 5830.0004 791.99998 5387.9997 770 5100 C 755.00001 4898.0002 739 4598.9999 739 4485 C 738 4354.0001 756.00001 4028.9999 770 3910 C 782.99999 3796.0001 812.00002 3613.9999 829 3538 C 834.99999 3511 844 3471 849 3448 C 874.99997 3331.0001 878.00006 3321.9998 936 3145 C 1002.9999 2941.0002 1100.0001 2710.9999 1182 2565 C 1261.9999 2422.0001 1314 2336 1327 2322 C 1334 2315 1340 2305 1340 2300 C 1340 2295 1346 2285 1352 2278 C 1359 2271 1385 2236 1409 2200 C 1434 2164 1457 2133 1460 2130 C 1463 2127 1477 2109 1490 2090 C 1503 2071 1517 2053 1520 2050 C 1523 2047 1536 2032 1549 2015 C 1602.9999 1944.0001 1692.0001 1846.9999 1809 1730 C 1937.9999 1602.0001 1974.0001 1568.9999 2070 1490 C 2100 1465 2127 1443 2130 1440 C 2133 1437 2162 1415 2195 1391 C 2228 1366 2271 1335 2290 1320 C 2309 1305 2379.0001 1258 2445 1214 C 2820.9996 963.00025 3325.0005 729.99986 3790 590 C 3831 578.00001 3892 556.99999 3925 545 C 4030.9999 504.00004 4193.0001 505.00004 4310 547 C 4340 557.99999 4399 578.00001 4440 590 C 4481 602.99999 4540 621.00001 4570 630 C 4600 639.99999 4648 654.00001 4675 663 C 4703 670.99999 4763 693.00002 4810 710 C 4857 727.99998 4906 745 4920 750 C 5079.9998 799.99995 5464.0002 979.00013 5690 1108 C 5793.9999 1166.9999 6098 1364 6110 1380 C 6113 1383 6131 1397 6150 1410 C 6169 1423 6190 1439 6196 1445 C 6203 1450 6227 1471 6251 1490 C 6435.9998 1639.9999 6673.0001 1880.0001 6760 2004 C 6768 2016 6780 2031 6787 2038 C 6794 2045 6800 2055 6800 2058 C 6800 2062 6810 2076 6823 2090 C 6836 2104 6869 2149 6897 2190 C 7107.9998 2503.9997 7285.0001 2904.0004 7371 3263 C 7421.9999 3475.9998 7444 3588.0002 7471 3785 C 7522.9999 4166.9996 7532 4530.0008 7511 5355 C 7497 5913.9994 7497 6144.0005 7511 6630 C 7528 7235.9994 7558 7614.0002 7608 7837 C 7624 7911.9999 7707 8010 7753 8010 C 7782 8010 7818 8032 7829 8057 C 7843 8088 7843 8156 7828 8183 C 7817 8205 7656.9993 8368.0007 6990 9040 C 6800.0002 9230.9998 6538.9999 9494.0001 6410 9624 C 6281.0001 9754.9999 6166 9866 6156 9872 C 6120 9892 6033 9884 5987 9857 C 5917.0001 9816 5736.9998 9759 5585 9729 C 5231.0004 9660.0001 4981.9995 9632 4495 9608 C 4177.0003 9593 3977.9997 9593 3665 9608 C 3255.0004 9628 2951.9998 9662 2738 9709 C 2711 9715 2671 9724 2648 9729 C 2530.0001 9755 2300 9835 2300 9850 C 2300 9866 2191 9894 2165 9885 L 2165 9885 "
       style="fill:#ffffff;fill-opacity:1;stroke:#000000;stroke-opacity:1;stroke-width:269.00000003;stroke-dasharray:none"
       inkscape:label="Kontur" /><g
       id="g3118"
       inkscape:label="Löwen"
       style="display:inline;stroke:none;stroke-width:20;stroke-dasharray:none;stroke-opacity:1"><path
         id="path867"
         d="M 3880,4714.374 V 4716 l -420,60 v -918 -918 l -1005,-2 -1005,-3 36,-75 c 19,-41 48,-95 64,-120 16,-25 42,-70 57,-100 l 29,-55 912,-3 912,-2 v -724 -724 l 58,-20 c 203.9998,-70.9999 352,-122 357,-122 3,0 5,358.0004 5,795 v 795 h 1393 1393 l 82,168 c 45,91.9999 82,173 82,180 0,9 -302.0012,12 -1475,12 H 3880 v 888 886.374"
         style="fill:#d60000;fill-opacity:1;stroke:none;stroke-width:51;stroke-dasharray:none;stroke-opacity:1"
         sodipodi:nodetypes="ccccccccscccccccssccccssccc" /></g><g
       fill="#ffffff"
       id="g5830"
       style="display:none;stroke:#000000;stroke-opacity:1"
       transform="matrix(14.381627,0,0,-14.381627,1177.392,9183.4975)"
       sodipodi:insensitive="true"><path
         d="m 381.39,40.934 c -6.836,-3.152 -10.79,-0.309 -12.586,3.814 -0.735,1.686 4.503,5.783 5.912,2.098 1.627,-4.258 4.257,-3.752 6.674,-5.912 z"
         id="path5798"
         style="stroke:#000000;stroke-opacity:1" /><path
         d="m 395.66,51.634 c -4.945,-5.676 -9.716,-4.703 -13.04,-1.678 -1.361,1.237 1.738,7.12 4.533,4.336 3.229,-3.217 5.421,-1.678 8.511,-2.658 z"
         id="path5800"
         style="stroke:#000000;stroke-opacity:1" /><path
         d="m 393.81,75.37 c 0.332,-7.52 -3.794,-10.11 -8.29,-10.209 -1.839,-0.042 -3.651,6.355 0.294,6.266 4.557,-0.104 5.083,2.522 7.997,3.943 z"
         id="path5802"
         style="stroke:#000000;stroke-opacity:1" /><path
         d="m 387.62,83.04 c -6.066,4.458 -10.509,2.465 -13.09,-1.215 -1.058,-1.505 3.253,-6.568 5.371,-3.24 2.447,3.845 4.923,2.823 7.724,4.454 z"
         id="path5804"
         style="stroke:#000000;stroke-opacity:1" /><path
         d="m 388.28,117.77 c -4.945,-5.676 -9.716,-4.703 -13.04,-1.678 -1.361,1.237 1.738,7.12 4.533,4.336 3.229,-3.217 5.421,-1.678 8.511,-2.658 z"
         id="path5806"
         style="stroke:#000000;stroke-opacity:1" /><path
         d="m 389.19,141.94 c 0.676,-7.497 -3.328,-10.268 -7.815,-10.577 -1.835,-0.126 -3.937,6.182 0.007,6.273 4.557,0.105 4.963,2.752 7.808,4.305 z"
         id="path5808"
         style="stroke:#000000;stroke-opacity:1" /><path
         d="m 376.32,155.19 c 5.04,-5.595 3.493,-10.213 0.088,-13.151 -1.393,-1.202 -6.858,2.587 -3.756,5.02 3.584,2.816 2.322,5.178 3.668,8.127 z"
         id="path5810"
         style="stroke:#000000;stroke-opacity:1" /><path
         d="m 368.26,155.26 c -7.527,-0.096 -9.873,-4.363 -9.721,-8.858 0.062,-1.838 6.553,-3.283 6.239,0.65 -0.363,4.544 2.229,5.219 3.482,8.208 z"
         id="path5812"
         style="stroke:#000000;stroke-opacity:1" /><path
         d="m 371.67,207.74 c -2.718,-7.02 -7.535,-7.729 -11.694,-6.02 -1.701,0.7 -0.789,7.287 2.787,5.62 4.131,-1.926 5.668,0.266 8.907,0.397 z"
         id="path5814"
         style="stroke:#000000;stroke-opacity:1" /><path
         d="m 369.65,226.15 c 1.594,-7.357 -2.038,-10.6 -6.453,-11.459 -1.806,-0.351 -4.669,5.65 -0.766,6.226 4.509,0.665 4.586,3.342 7.219,5.233 z"
         id="path5816"
         style="stroke:#000000;stroke-opacity:1" /><path
         d="m 356.57,236.68 c 4.276,-6.196 2.152,-10.577 -1.603,-13.05 -1.536,-1.013 -6.469,3.446 -3.079,5.465 3.916,2.332 2.968,4.837 4.681,7.588 z"
         id="path5818"
         style="stroke:#000000;stroke-opacity:1" /><path
         d="m 346.6,235.85 c -7.521,0.332 -10.11,-3.795 -10.208,-8.291 -0.042,-1.839 6.356,-3.65 6.266,0.294 -0.104,4.557 2.522,5.084 3.943,7.997 z"
         id="path5820"
         style="stroke:#000000;stroke-opacity:1" /><path
         d="m 274.49,224.97 c 0.808,-7.484 -3.146,-10.326 -7.627,-10.714 -1.833,-0.159 -4.046,6.111 -0.104,6.272 4.554,0.185 4.913,2.839 7.731,4.442 z"
         id="path5822"
         style="stroke:#000000;stroke-opacity:1" /><path
         d="m 265.39,239.41 c 3.74,-6.533 1.256,-10.721 -2.694,-12.872 -1.615,-0.88 -6.156,3.978 -2.609,5.704 4.098,1.995 3.364,4.57 5.302,7.168 z"
         id="path5824"
         style="stroke:#000000;stroke-opacity:1" /><path
         d="m 246.26,240.41 c 5.777,-4.827 4.902,-9.617 1.946,-13.01 -1.209,-1.386 -7.155,1.591 -4.428,4.443 3.15,3.295 1.566,5.454 2.482,8.563 z"
         id="path5826"
         style="stroke:#000000;stroke-opacity:1" /><path
         d="m 228.84,236.81 c -5.256,-5.389 -3.899,-10.07 -0.613,-13.14 1.344,-1.256 6.956,2.311 3.953,4.87 -3.469,2.957 -2.113,5.267 -3.34,8.267 z"
         id="path5828"
         style="stroke:#000000;stroke-opacity:1" /></g><g
       fill-rule="evenodd"
       stroke-width="2"
       id="g5832"
       style="display:inline;stroke:#000000;stroke-opacity:1"
       transform="matrix(14.381627,0,0,-14.381627,1177.392,9183.4975)"
       inkscape:label="Löwen-neu"><path
         d="M 2129,9353 C 1972,9209 1370,8627 1111,8366 l -245,-245 40,-46 c 109,-129 169,-230 216,-360 46,-128 48,-142 53,-475 3,-179 10,-415 15,-525 5,-110 12,-328 16,-484 l 6,-283 31,6 c 322,65 578,96 857,102 l 215,5 c 0,0 421,-17 538,-25 108,-7 623,-62 670,-72 25,-5 146,-16 148,-18 7,-6 930,-137 944,-134 10,2 331,-45 339,-47 44,-14 601,-58 859,-68 80,-3 350,3 354,0 15,-8 349,13 528,34 162,18 311,40 372,54 l 22,5 5,563 c 6,690 24,1030 75,1402 19,138 57,258 106,339 l 32,53 -636,643 -636,643 -80,-28 c -78,-27 -110,-36 -187,-56 -21,-5 -57,-14 -80,-20 -24,-5 -65,-15 -93,-20 -27,-5 -72,-14 -100,-19 -394,-76 -1054,-114 -1725,-98 -399,9 -667,32 -932,78 -136,24 -165,29 -208,40 -170,42 -198,50 -326,98 l -81,30 z"
         id="path869"
         style="display:inline;fill:#da121a;fill-opacity:1;stroke:none;stroke-width:20;stroke-dasharray:none;stroke-opacity:1"
         inkscape:label="Hintergrund"
         sodipodi:nodetypes="ccccccscccccccccccccccccccccccccccccccc"
         transform="matrix(0.06953316,0,0,-0.06953316,-81.867789,638.55762)" /><path
         d="m 104.51,57.04 c 4.062,2.691 -8.804,2.561 -12.76,5.448 -4.823,3.52 2.02,5.826 5.444,3.135 4.506,-3.54 15.701,-0.702 20.794,-5.767 -2.282,1.123 -3.362,4.646 -5.448,4.704 -9.374,0.262 -7.846,6.863 -13.02,8.366 -5.417,1.575 -11.219,6.922 -15.326,7.268 C 77.965,80.719 73.843,76.536 69.134,76.361 64.236,76.179 57.912,71.856 52.875,67.57 47.432,62.939 42.7,57.02 44.158,50.942 45.549,45.143 42.794,41.489 39.059,46.48 29.851,43.051 37.38,54.93 38.252,58.56 33.266,53.206 31.403,44.662 27.732,52.088 c -10.155,4.072 6.04,8.473 5.922,11.169 -2.918,-0.14 -12.02,-6.521 -5.219,6.527 -2.93,5.03 2.213,4.531 4.342,1.171 1.484,-2.343 4.873,0.858 7.093,1.532 -7.763,1.759 -9.546,7.498 -3.977,6.336 3.458,8.592 2.892,-2.472 11.435,1.722 5.604,2.751 2.629,7.373 9.04,12.06 -0.612,-3.512 -1.041,-5.69 1.231,-9.202 0.719,3.9 0.204,8.05 3.236,11.485 -0.049,-4.248 0.367,-6.123 2,-8.88 0.83,3.356 1.502,5.949 0.692,9.676 3.085,1.867 4.483,-2.369 4.854,-7.617 -0.177,11.05 7.05,12.09 2.544,18.698 -2.528,3.498 -7.137,5.851 -12.182,9.349 -6.5,4.507 -12.331,9.517 -15.642,2.762 -3.89,-4.323 -7.081,-8.813 -7.85,0.539 -8.155,3.476 0.145,5.074 2.996,8.091 -3.763,1.189 -12.834,-0.069 -7.344,7.322 0.063,8.861 6.229,-1.921 10.11,-0.915 -1.151,4.36 -11.587,9.272 -4.718,8.711 4.413,9.865 8.101,-1.149 11.446,-4.936 0.172,3.919 -6.654,10.91 3.329,7.692 4.806,1.308 5.286,-3.128 3.356,-8.908 -0.707,-2.116 7.113,-6.139 8.26,-6.658 1.274,-0.577 12.01,2.968 18.404,0.256 -4.724,-1.723 -6.7,-3.447 -9.556,-5.17 4.547,0.905 11.192,2.781 15.74,1.842 -4.219,-1.89 -7.823,-3.882 -9.02,-6.276 5.644,1.03 11.956,2.828 11.473,5.316 -0.846,4.365 5.265,9.856 9.469,13.05 4.266,3.241 10.635,6.906 18.813,9.425 -4.069,5.677 -8.554,11.598 -14.786,12.879 -12.22,2.513 -16.737,9.651 -16.846,22.15 -0.071,8.232 -0.819,15.33 -12.978,20.937 -4.18,1.928 -8.02,3.256 -12.4,2.702 -3.38,-2.318 -8.709,-11.457 -8.384,-0.807 -6.15,4.814 3.228,3.742 7.398,6.576 -3.318,1.121 -16.313,-3.218 -9.599,4.751 0.826,8.787 10.08,-1.579 15.03,-3.073 -0.942,4.989 -17.911,8.213 -5.573,11.637 1.211,3.558 5.252,1.339 6.678,-2.074 1.237,-2.961 3.161,-1.696 6.47,-6.571 -0.666,2.865 -7.893,9.511 -2.043,8.616 5.34,5.282 7.262,-0.846 7.233,-5.697 -0.029,-4.955 8.857,-2.092 14.272,-3.486 -2.01,-1.896 -5.39,-3.792 -4.608,-5.688 3.01,1.888 7.646,2.867 12.662,1.237 -4,-2.337 -6.23,-4.293 -6.189,-6.63 3.925,3.326 9.565,5.35 13.49,2.631 -4.695,-2.379 -7.386,-4.567 -8.636,-6.946 4.823,3.112 8.549,7.186 14.846,0.474 -14.995,-4.199 -10.825,-18.645 1.712,-25.676 6.05,-3.392 15.746,-5.111 20.05,-13.343 10.503,13.785 6.02,20.232 10.815,26.581 1.578,2.089 4.896,6.595 9.578,7.654 6.576,1.488 12.376,6.891 7.11,13.73 -3.01,3.913 -4.995,5.68 -9.343,2.19 -4.804,-3.682 -10.961,-2.558 -7.546,4.974 -1.17,8.07 8.02,1.319 11.98,1.88 -1.725,2.665 -16.09,5.321 -7.251,8.106 1.82,6.571 4.611,4.08 8.335,-1.225 l 6.592,-5.835 c -0.957,3.34 -9.4,9.328 -0.507,8.509 3.619,1.391 6.684,4.313 6.374,-5.589 3.345,2.044 5.04,9.282 8.842,1.792 12.464,-5.949 -9.03,-6.401 -6.08,-11.277 2.597,-4.292 5.321,-6.62 3.901,-11.61 2.888,-0.185 5.01,-1.846 7.9,-6.07 -2.315,0.878 -4.603,1.721 -5.426,0.61 4.159,-2.523 5.267,-3.221 7.9,-9.109 l -9.137,1.874 c 6.215,-2.472 9.905,-6.887 9.518,-14.438 -3.795,5.357 -9.06,8.98 -16.655,5.775 -7.095,-2.993 -6.458,-10.05 -5.552,-17.194 9.433,1.919 21.503,-7.258 25.666,-16.759 3.559,-8.122 5.438,-19.403 0.692,-29.894 -8.886,-19.64 -20.04,-32.29 -29.594,-50.28 4.606,-3.42 8.949,-6.339 15.787,5.03 4.59,7.633 16.833,7.253 18.956,-3.231 -5.16,2.157 -10.623,2.343 -13.168,-1.961 10.395,2.154 15.412,-1.92 16.15,-10.951 -9.05,6.374 -15.298,5.705 -23.443,0.861 -6.213,-3.695 -15.879,-1.994 -21.831,7.459 -6.874,10.915 -6.267,21.15 -4.064,32.896 2.234,11.907 14.596,26.18 23.759,39.06 5.495,9.144 4.099,14.916 -2.882,18.911 -9.06,5.181 -10.77,-5.439 -15.61,-12.148 -2.665,-3.694 -9.126,-9.267 -16.627,-14.09 -9.613,-6.182 -11.391,-19.03 -16.497,-35.724 2.972,5.609 5.01,12.434 11.169,13.168 -4.278,-11.537 -3.17,-26.715 1.052,-42.39 1.995,-7.41 1.916,-12.8 1.106,-20.01 -1.259,-11.212 -8.947,-3.392 -12.563,-1.308 6.635,-3.572 9.153,-8.117 7.709,-14.432 -1.288,-5.634 -8.204,-0.674 -11.01,1.329 -0.642,-5.455 0.774,-12.761 -6.723,-13.294 -2.967,-0.211 -7.01,1.96 -8.284,4.914 -2.034,4.706 -7.928,4.918 -12.272,7.677 -5.518,3.504 -15.892,2.249 -14.312,12.727 2.701,-1.733 6.903,0.14 7.328,-7.06 0.7,4.857 -1.084,6.228 -7.328,7.06 0.598,2.673 1.374,5.626 2.855,5.999 5.108,1.286 12.252,-3.62 17.641,-0.065 5.779,3.811 3.989,6.081 -5.089,6.505 -6.797,0.526 -22.846,1.131 -23.293,-5.882 -0.462,-7.239 -7.503,-9.03 -10.643,-2.715 -3.877,7.794 5.892,14.15 12.501,15.576 7.081,1.525 20.17,-2.746 30.21,-4.119 z"
         fill="#ffffff"
         id="path5748"
         style="stroke:#000000;stroke-opacity:1" /><path
         d="m 158.57,73.54 c 7.691,16.469 15.664,25.389 23.265,38.711 4.795,8.403 9.56,19.891 5.721,28.986 -6.111,-11.587 -14.358,-22.747 -23.07,-33.18 -8.1,-9.696 -8.544,-22.676 -5.912,-34.516 z"
         fill="#da121a"
         id="path5750"
         style="stroke:#000000;stroke-opacity:1" /><path
         d="m 154.37,36.17 c 3.979,-8.758 14.352,-15.7 23.837,-12.967 7.541,2.173 6.446,10.09 21.17,4.386 -0.319,6.864 -6.685,9.206 -14.11,8.963 2.984,3.315 8.648,1.898 13.349,-0.191 -1.398,6.915 -11.741,12.598 -16.972,9.153 -5.746,-3.784 -6.583,-17.84 -17.353,-10.298 -4.554,3.189 -5.647,15.719 -4.195,24.79 l -4.672,6.293 c -1.919,-10.04 -5.387,-20.581 -1.049,-30.13 z"
         fill="#ffffff"
         id="path5752"
         style="stroke:#000000;stroke-opacity:1" /><path
         d="m 157.86,77.21 c 0.194,-5.555 4.281,-8.506 7.792,-11.224 m -47.628,82.27 c 7.311,3.929 16.475,7.463 19.05,16.295 m -29.23,-129.33 c -4.309,0.294 -3.692,-0.1 -5.339,0.763 0.18,-1.865 -0.174,-4.743 0.953,-4.958 2.213,-0.422 2.644,2.227 4.386,4.195 m -8.963,82.953 c -5.533,4.253 -19.856,-7.672 -20.61,2.295 m 9.153,-41.26 c -9.274,9.658 -11.02,18.375 -16.48,27.557 13.02,-0.339 12.68,-16.14 24.696,-24.635 -8.537,8.963 -8.174,15.06 -12.967,26.888 14.663,-11.07 12.79,-18.234 20.786,-28.604 -7.17,14.844 -5.353,17.468 -12.205,30.32 12.927,-11.758 12.217,-16.724 19.451,-32.04 -5.886,13.687 1.507,15.183 -11.823,34.897 11.723,-12.199 14.943,-19.533 19.451,-34.13 -3.401,13.462 -0.238,15.889 -3.623,25.553 11.242,-6.833 6.363,-20.417 13.349,-30.13 -1.782,5.381 -3.318,11.09 -3.592,18.484 m -21.21,-68.24 c 6.791,-2.796 17.822,-4.116 18.308,-1.162"
         fill="none"
         id="path5754"
         style="stroke:#000000;stroke-opacity:1" /><g
         fill="#ffffff"
         id="g5790"
         style="stroke:#000000;stroke-opacity:1"><path
           d="m 30.611,40.934 c 6.836,-3.152 10.79,-0.309 12.586,3.814 0.735,1.686 -4.503,5.783 -5.912,2.098 -1.627,-4.258 -4.257,-3.752 -6.674,-5.912 z"
           id="path5756"
           style="stroke:#000000;stroke-opacity:1" /><path
           d="m 16.339,51.634 c 4.945,-5.676 9.716,-4.703 13.04,-1.678 1.361,1.237 -1.738,7.12 -4.533,4.336 -3.229,-3.217 -5.421,-1.678 -8.511,-2.658 z"
           id="path5758"
           style="stroke:#000000;stroke-opacity:1" /><path
           d="m 18.19,75.37 c -0.332,-7.52 3.794,-10.11 8.29,-10.209 1.839,-0.042 3.651,6.355 -0.294,6.266 -4.557,-0.104 -5.083,2.522 -7.997,3.943 z"
           id="path5760"
           style="stroke:#000000;stroke-opacity:1" /><path
           d="m 24.38,83.04 c 6.066,4.458 10.509,2.465 13.09,-1.215 1.058,-1.505 -3.253,-6.568 -5.371,-3.24 -2.447,3.845 -4.923,2.823 -7.724,4.454 z"
           id="path5762"
           style="stroke:#000000;stroke-opacity:1" /><path
           d="m 23.725,117.77 c 4.945,-5.676 9.716,-4.703 13.04,-1.678 1.361,1.237 -1.738,7.12 -4.533,4.336 -3.229,-3.217 -5.421,-1.678 -8.511,-2.658 z"
           id="path5764"
           style="stroke:#000000;stroke-opacity:1" /><path
           d="m 22.808,141.94 c -0.676,-7.497 3.328,-10.268 7.815,-10.577 1.835,-0.126 3.937,6.182 -0.007,6.273 -4.557,0.105 -4.963,2.752 -7.808,4.305 z"
           id="path5766"
           style="stroke:#000000;stroke-opacity:1" /><path
           d="m 35.675,155.19 c -5.04,-5.595 -3.493,-10.213 -0.088,-13.151 1.393,-1.202 6.858,2.587 3.756,5.02 -3.584,2.816 -2.322,5.178 -3.668,8.127 z"
           id="path5768"
           style="stroke:#000000;stroke-opacity:1" /><path
           d="m 43.736,155.26 c 7.527,-0.096 9.873,-4.363 9.721,-8.858 -0.062,-1.838 -6.553,-3.283 -6.239,0.65 0.363,4.544 -2.229,5.219 -3.482,8.208 z"
           id="path5770"
           style="stroke:#000000;stroke-opacity:1" /><path
           d="m 40.33,207.74 c 2.718,-7.02 7.535,-7.729 11.694,-6.02 1.701,0.7 0.789,7.287 -2.787,5.62 -4.131,-1.926 -5.668,0.266 -8.907,0.397 z"
           id="path5772"
           style="stroke:#000000;stroke-opacity:1" /><path
           d="m 42.35,226.15 c -1.594,-7.357 2.038,-10.6 6.453,-11.459 1.806,-0.351 4.669,5.65 0.766,6.226 -4.509,0.665 -4.586,3.342 -7.219,5.233 z"
           id="path5774"
           style="stroke:#000000;stroke-opacity:1" /><path
           d="m 55.43,236.68 c -4.276,-6.196 -2.152,-10.577 1.603,-13.05 1.536,-1.013 6.469,3.446 3.079,5.465 -3.916,2.332 -2.968,4.837 -4.681,7.588 z"
           id="path5776"
           style="stroke:#000000;stroke-opacity:1" /><path
           d="m 65.4,235.85 c 7.521,0.332 10.11,-3.795 10.208,-8.291 0.042,-1.839 -6.356,-3.65 -6.266,0.294 0.104,4.557 -2.522,5.084 -3.943,7.997 z"
           id="path5778"
           style="stroke:#000000;stroke-opacity:1" /><path
           d="m 137.51,224.97 c -0.808,-7.484 3.146,-10.326 7.627,-10.714 1.833,-0.159 4.046,6.111 0.104,6.272 -4.554,0.185 -4.913,2.839 -7.731,4.442 z"
           id="path5780"
           style="stroke:#000000;stroke-opacity:1" /><path
           d="m 146.61,239.41 c -3.74,-6.533 -1.256,-10.721 2.694,-12.872 1.615,-0.88 6.156,3.978 2.609,5.704 -4.098,1.995 -3.364,4.57 -5.302,7.168 z"
           id="path5782"
           style="stroke:#000000;stroke-opacity:1" /><path
           d="m 165.74,240.41 c -5.777,-4.827 -4.902,-9.617 -1.946,-13.01 1.209,-1.386 7.155,1.591 4.428,4.443 -3.15,3.295 -1.566,5.454 -2.482,8.563 z"
           id="path5784"
           style="stroke:#000000;stroke-opacity:1" /><path
           d="m 183.16,236.81 c 5.256,-5.389 3.899,-10.07 0.613,-13.14 -1.344,-1.256 -6.956,2.311 -3.953,4.87 3.469,2.957 2.113,5.267 3.34,8.267 z"
           id="path5786"
           style="stroke:#000000;stroke-opacity:1" /><path
           d="m 307.49,57.04 c -4.062,2.691 8.804,2.561 12.76,5.448 4.823,3.52 -2.02,5.826 -5.444,3.135 -4.506,-3.54 -15.701,-0.702 -20.794,-5.767 2.282,1.123 3.362,4.646 5.448,4.704 9.374,0.262 7.846,6.863 13.02,8.366 5.417,1.575 11.219,6.922 15.326,7.268 6.229,0.525 10.351,-3.658 15.06,-3.833 4.898,-0.182 11.222,-4.505 16.259,-8.791 5.443,-4.631 10.175,-10.55 8.717,-16.628 -1.391,-5.799 1.364,-9.453 5.099,-4.462 9.208,-3.429 1.679,8.45 0.807,12.08 4.986,-5.354 6.849,-13.898 10.52,-6.472 10.155,4.072 -6.04,8.473 -5.922,11.169 2.918,-0.14 12.02,-6.521 5.219,6.527 2.93,5.03 -2.213,4.531 -4.342,1.171 -1.485,-2.343 -4.873,0.858 -7.093,1.532 7.763,1.759 9.546,7.498 3.977,6.336 -3.458,8.592 -2.892,-2.472 -11.435,1.722 -5.604,2.751 -2.629,7.373 -9.04,12.06 0.612,-3.512 1.041,-5.69 -1.231,-9.202 -0.719,3.9 -0.204,8.05 -3.236,11.485 0.049,-4.248 -0.367,-6.123 -2,-8.88 -0.83,3.356 -1.502,5.949 -0.692,9.676 -3.085,1.867 -4.483,-2.369 -4.854,-7.617 0.177,11.05 -7.05,12.09 -2.544,18.698 2.528,3.498 7.137,5.851 12.182,9.349 6.5,4.507 12.331,9.517 15.642,2.762 3.89,-4.323 7.081,-8.813 7.85,0.539 8.155,3.476 -0.146,5.074 -2.996,8.091 3.763,1.189 12.834,-0.069 7.344,7.322 -0.063,8.861 -6.229,-1.921 -10.11,-0.915 1.151,4.36 11.587,9.272 4.718,8.711 -4.413,9.865 -8.101,-1.149 -11.446,-4.936 -0.172,3.919 6.654,10.91 -3.329,7.692 -4.806,1.308 -5.286,-3.128 -3.356,-8.908 0.707,-2.116 -7.113,-6.139 -8.26,-6.658 -1.274,-0.577 -12.01,2.968 -18.404,0.256 4.724,-1.723 6.7,-3.447 9.556,-5.17 -4.547,0.905 -11.192,2.781 -15.74,1.842 4.219,-1.89 7.823,-3.882 9.02,-6.276 -5.644,1.03 -11.956,2.828 -11.473,5.316 0.846,4.365 -5.265,9.856 -9.469,13.05 -4.266,3.241 -10.635,6.906 -18.813,9.425 4.069,5.677 8.554,11.598 14.786,12.879 12.22,2.513 16.737,9.651 16.846,22.15 0.071,8.232 0.819,15.33 12.978,20.937 4.18,1.928 8.02,3.256 12.4,2.702 3.38,-2.318 8.709,-11.457 8.384,-0.807 6.15,4.814 -3.228,3.742 -7.398,6.576 3.318,1.121 16.313,-3.218 9.599,4.751 -0.826,8.787 -10.08,-1.579 -15.03,-3.073 0.942,4.989 17.911,8.213 5.573,11.637 -1.211,3.558 -5.252,1.339 -6.678,-2.074 -1.237,-2.961 -3.161,-1.696 -6.471,-6.571 0.666,2.865 7.893,9.511 2.043,8.616 -5.34,5.282 -7.262,-0.846 -7.233,-5.697 0.029,-4.955 -8.857,-2.092 -14.272,-3.486 2.01,-1.896 5.39,-3.792 4.608,-5.688 -3.01,1.888 -7.646,2.867 -12.662,1.237 4,-2.337 6.23,-4.293 6.189,-6.63 -3.925,3.326 -9.565,5.35 -13.49,2.631 4.695,-2.379 7.386,-4.567 8.636,-6.946 -4.823,3.112 -8.549,7.186 -14.846,0.474 14.995,-4.199 10.825,-18.645 -1.712,-25.676 -6.05,-3.392 -15.746,-5.111 -20.05,-13.343 -10.503,13.785 -6.02,20.232 -10.815,26.581 -1.578,2.089 -4.896,6.595 -9.578,7.654 -6.576,1.488 -12.376,6.891 -7.11,13.73 3.01,3.913 4.995,5.68 9.343,2.19 4.804,-3.682 10.961,-2.558 7.546,4.974 1.17,8.07 -8.02,1.319 -11.98,1.88 1.725,2.665 16.09,5.321 7.251,8.106 -1.82,6.571 -4.611,4.08 -8.335,-1.225 l -6.592,-5.835 c 0.957,3.34 9.4,9.328 0.507,8.509 -3.619,1.391 -6.684,4.313 -6.374,-5.589 -3.345,2.044 -5.04,9.282 -8.842,1.792 -12.464,-5.949 9.03,-6.401 6.08,-11.277 -2.597,-4.292 -5.321,-6.62 -3.901,-11.61 -2.888,-0.185 -5.01,-1.846 -7.9,-6.07 2.315,0.878 4.603,1.721 5.426,0.61 -4.159,-2.523 -5.267,-3.221 -7.9,-9.109 l 9.137,1.874 c -6.215,-2.472 -9.905,-6.887 -9.518,-14.438 3.795,5.357 9.06,8.98 16.655,5.775 7.095,-2.993 6.458,-10.05 5.552,-17.194 -9.433,1.919 -21.503,-7.258 -25.666,-16.759 -3.559,-8.122 -5.438,-19.403 -0.692,-29.894 8.886,-19.64 20.04,-32.29 29.594,-50.28 -4.606,-3.42 -8.949,-6.339 -15.787,5.03 -4.59,7.633 -16.833,7.253 -18.956,-3.231 5.16,2.157 10.623,2.343 13.168,-1.961 -10.395,2.154 -15.412,-1.92 -16.15,-10.951 9.05,6.374 15.298,5.705 23.443,0.861 6.213,-3.695 15.879,-1.994 21.831,7.459 6.874,10.915 6.267,21.15 4.064,32.896 -2.234,11.907 -14.596,26.18 -23.759,39.06 -5.495,9.144 -4.099,14.916 2.882,18.911 9.06,5.181 10.77,-5.439 15.61,-12.148 2.665,-3.694 9.126,-9.267 16.627,-14.09 9.613,-6.182 11.391,-19.03 16.497,-35.724 -2.972,5.609 -5.01,12.434 -11.169,13.168 4.278,-11.537 3.17,-26.715 -1.052,-42.39 -1.995,-7.41 -1.916,-12.8 -1.106,-20.01 1.259,-11.212 8.947,-3.392 12.563,-1.308 -6.635,-3.572 -9.153,-8.117 -7.709,-14.432 1.288,-5.634 8.204,-0.674 11.01,1.329 0.642,-5.455 -0.774,-12.761 6.723,-13.294 2.967,-0.211 7.01,1.96 8.284,4.914 2.034,4.706 7.928,4.918 12.272,7.677 5.518,3.504 15.892,2.249 14.312,12.727 -2.701,-1.733 -6.903,0.14 -7.328,-7.06 -0.7,4.857 1.084,6.228 7.328,7.06 -0.598,2.673 -1.374,5.626 -2.855,5.999 -5.108,1.286 -12.252,-3.62 -17.641,-0.065 -5.779,3.811 -3.989,6.081 5.089,6.505 6.797,0.526 22.846,1.131 23.293,-5.882 0.462,-7.239 7.503,-9.03 10.643,-2.715 3.877,7.794 -5.892,14.15 -12.501,15.576 -7.081,1.525 -20.17,-2.746 -30.21,-4.119 z"
           id="path5788"
           style="stroke:#000000;stroke-opacity:1" /></g><path
         d="m 253.43,73.54 c -7.691,16.469 -15.664,25.389 -23.265,38.711 -4.795,8.403 -9.56,19.891 -5.721,28.986 6.111,-11.587 14.358,-22.747 23.07,-33.18 8.1,-9.696 8.544,-22.676 5.912,-34.516 z"
         fill="#da121a"
         id="path5792"
         style="stroke:#000000;stroke-opacity:1" /><path
         d="m 257.63,36.17 c -3.979,-8.758 -14.352,-15.7 -23.837,-12.967 -7.541,2.173 -6.446,10.09 -21.17,4.386 0.319,6.864 6.685,9.206 14.11,8.963 -2.984,3.315 -8.648,1.898 -13.349,-0.191 1.398,6.915 11.741,12.598 16.972,9.153 5.746,-3.784 6.583,-17.84 17.353,-10.298 4.554,3.189 5.647,15.719 4.195,24.79 l 4.672,6.293 c 1.919,-10.04 5.387,-20.581 1.049,-30.13 z"
         fill="#ffffff"
         id="path5794"
         style="display:inline;stroke:#000000;stroke-opacity:1" /><path
         d="m 254.14,77.21 c -0.194,-5.555 -4.281,-8.506 -7.792,-11.224 m 47.628,82.27 c -7.311,3.929 -16.475,7.463 -19.05,16.295 m 29.23,-129.33 c 4.309,0.294 3.692,-0.1 5.339,0.763 -0.18,-1.865 0.174,-4.743 -0.953,-4.958 -2.213,-0.422 -2.644,2.227 -4.386,4.195 m 8.963,82.953 c 5.533,4.253 19.856,-7.672 20.61,2.295 m -9.153,-41.26 c 9.274,9.658 11.02,18.375 16.48,27.557 -13.02,-0.339 -12.68,-16.14 -24.696,-24.635 8.537,8.963 8.174,15.06 12.967,26.888 -14.663,-11.07 -12.79,-18.234 -20.786,-28.604 7.17,14.844 5.353,17.468 12.205,30.32 -12.927,-11.758 -12.217,-16.724 -19.451,-32.04 5.886,13.687 -1.507,15.183 11.823,34.897 -11.723,-12.199 -14.943,-19.533 -19.451,-34.13 3.401,13.462 0.238,15.889 3.623,25.553 -11.242,-6.833 -6.363,-20.417 -13.349,-30.13 1.782,5.381 3.318,11.09 3.592,18.484 m 21.21,-68.24 c -6.791,-2.796 -17.822,-4.116 -18.308,-1.162"
         fill="none"
         id="path5796"
         style="display:inline;stroke:#000000;stroke-opacity:1" /><path
         id="path2732"
         d="m 7305,5765 -100,-22 c -402.9996,-89.9999 -844.0005,-130 -1335,-120 -486.9995,10 -806.0009,42.0001 -1750,177 -884.9991,126.9999 -1151.0004,158 -1540,180 -529.9995,30 -1064.0004,-12.0001 -1472,-115 -52.9999,-14 -101,-25 -107,-25"
         style="display:inline;opacity:1;fill:none;fill-opacity:1;stroke:#ffffff;stroke-width:165;stroke-dasharray:none;stroke-opacity:1"
         inkscape:label="Löwen Füllung"
         transform="matrix(0.06953316,0,0,-0.06953316,-81.867789,638.55762)"
         sodipodi:nodetypes="ccccccc" /></g><g
       id="g3140"
       inkscape:label="Schriftzug"
       style="stroke-width:110;stroke-dasharray:none"
       transform="matrix(1.0408088,0,0,0.99819048,-184.17888,9.4905242)"><path
         id="path2734"
         d="m 2565,5920 c 416.9996,-23 658.001,-51.0001 1685,-199 549.9994,-79.9999 834.0004,-113 1205,-143 209.9998,-17 887.0002,-17 1060,0 297.9997,29 533.0002,67.0001 763,122 67.9999,17 125,30 127,30 2,0 -8,-39 -22,-87 -13,-49 -38,-153.0001 -55,-233 -27,-122.9999 -32,-167.0001 -32,-290 -1,-166.9998 18.0001,-249.0001 78,-338 l 34,-51 -107,-25 c -517.9995,-121.9999 -1063.0006,-167 -1656,-136 -417.9996,22 -759.0008,61.0001 -1550,175 -566.9994,81.9999 -908.0002,126 -1155,149 -785.9992,73.9999 -1417.0006,33.9998 -1969,-125 -56.99994,-16 -106,-27 -109,-25 -3,3 11.00002,41 30,83 43.99996,95.9999 101.00002,272.0001 122,375 41,198.9998 3.9999,354.0001 -117,485 -21.99998,24 -38,45 -36,48 3,2 63.00007,20 134,39 467.9995,127.9999 993.0006,177 1570,146 v 0"
         style="fill:#fee63e;fill-opacity:1;stroke:#000000;stroke-width:110;stroke-dasharray:none;stroke-opacity:1"
         inkscape:label="Hintergrund" /><path
         d="m 2191,5657 c -45,-23 -66,-63 -66,-129 0,-65 6,-72 108,-151 69,-52 41,-116 -54,-125 l -51,-5 7,-36 c 10,-52 13,-54 64,-46 64,9 110,40 132,89 40,88 18,153 -71,208 -52,32 -60,41 -60,67 0,36 26,64 54,58 84,-19 83,-19 88,0 3,10 9,26 13,36 15,36 -110,62 -164,34 z"
         id="path881"
         style="stroke-width:110;stroke-dasharray:none" /><path
         d="m 2533,5649 c -76,-37 -122,-130 -122,-244 0,-189 124,-294 284,-240 32,11 50,13 64,6 10,-6 21,-7 25,-4 3,3 6,57 6,120 v 113 h -40 -40 v -69 c 0,-68 0,-69 -32,-82 -18,-7 -50,-13 -71,-13 -68,2 -120,75 -118,170 0,63 18,109 55,146 49,48 101,43 156,-14 l 37,-39 22,27 c 27,34 27,36 -6,75 -55,65 -145,85 -220,48 z"
         id="path883"
         style="stroke-width:110;stroke-dasharray:none" /><path
         d="m 1771,5643 -74,-4 7,-57 c 3,-31 11,-140 17,-242 6,-102 14,-188 18,-191 3,-4 22,-4 41,-2 l 35,5 -3,64 -4,64 h 64 c 75,0 123,21 154,67 60,90 25,241 -67,288 -15,8 -47,14 -71,13 -24,-1 -76,-4 -117,-5 z m 176,-97 c 30,-35 38,-95 19,-140 -17,-42 -46,-56 -116,-56 -46,0 -48,1 -53,33 -6,29 -10,127 -8,169 2,36 125,32 158,-6 z"
         id="path885"
         style="stroke-width:110;stroke-dasharray:none" /><path
         d="m 3016,5588 c -20,-150 -23,-132 70,-450 4,-13 16,-18 38,-18 31,0 34,4 76,92 49,103 45,105 75,-35 l 17,-78 36,3 c 34,3 37,6 113,148 77,144 78,147 85,238 l 7,92 h -40 -40 l -7,-92 c -6,-84 -11,-101 -53,-180 -26,-49 -50,-88 -53,-88 -4,0 -16,44 -26,98 -17,85 -18,108 -8,187 6,50 11,90 10,91 -1,1 -18,4 -38,7 -42,6 -41,10 -53,-120 -5,-57 -38,-152 -77,-227 -15,-28 -15,-28 -43,74 -28,98 -28,105 -17,193 6,50 10,92 9,93 -1,1 -18,5 -38,9 l -36,7 z"
         id="path887"
         style="stroke-width:110;stroke-dasharray:none" /><path
         d="m 1300,5588 c -30,-5 -56,-11 -58,-13 -2,-1 8,-69 22,-151 13,-82 30,-189 36,-239 6,-49 13,-91 15,-93 1,-2 49,2 104,9 126,16 164,36 200,104 22,42 26,63 26,135 0,73 -4,93 -28,142 -16,32 -43,68 -65,85 -33,25 -46,28 -117,30 -44,1 -105,-3 -135,-9 z m 183,-73 c 74,-35 109,-164 72,-260 -19,-52 -46,-69 -122,-80 -50,-6 -51,-6 -57,22 -16,75 -46,298 -42,309 10,25 104,31 149,9 z"
         id="path889"
         style="stroke-width:110;stroke-dasharray:none" /><path
         d="m 3606,5527 c -26,-19 -18,-71 12,-75 13,-2 30,2 38,8 20,18 17,57 -5,70 -25,13 -24,13 -45,-3 z"
         id="path891"
         style="stroke-width:110;stroke-dasharray:none" /><path
         d="m 3744,5498 c -4,-5 -9,-33 -13,-62 -5,-43 -9,-51 -28,-54 -18,-3 -23,-10 -23,-33 0,-20 5,-29 16,-29 18,0 18,-5 -2,-181 -9,-76 12,-99 90,-99 49,0 54,2 60,25 9,35 2,42 -32,37 -46,-6 -55,14 -43,103 6,42 11,81 11,87 0,7 16,9 44,5 43,-6 44,-6 49,26 6,41 2,47 -31,47 -44,0 -52,11 -42,55 5,22 10,45 10,52 0,16 -58,35 -66,21 z"
         id="path893"
         style="stroke-width:110;stroke-dasharray:none" /><path
         d="m 3946,5449 c -3,-17 -6,-44 -6,-60 0,-21 -5,-28 -22,-31 -31,-4 -38,-53 -10,-60 18,-5 19,-9 6,-99 -18,-125 -17,-136 6,-159 15,-15 33,-20 74,-20 47,0 54,3 60,23 9,35 8,37 -28,37 -53,0 -59,15 -45,115 l 12,87 42,-6 c 41,-5 43,-4 49,26 9,47 9,48 -35,48 h -42 l 7,59 c 6,55 5,59 -16,65 -39,10 -45,7 -52,-25 z"
         id="path895"
         style="stroke-width:110;stroke-dasharray:none" /><path
         d="m 3576,5387 c -3,-12 -6,-44 -6,-72 0,-27 -7,-90 -14,-140 -8,-49 -12,-93 -9,-97 2,-5 19,-8 37,-8 h 33 l 7,73 c 3,39 13,112 22,161 8,48 14,89 12,91 -2,1 -19,5 -40,8 -31,5 -37,2 -42,-16 z"
         id="path897"
         style="stroke-width:110;stroke-dasharray:none" /><path
         d="m 4180,5318 c -46,-31 -78,-91 -85,-159 -11,-100 53,-180 147,-181 77,-2 126,39 99,81 -7,10 -13,11 -30,1 -12,-6 -41,-12 -64,-12 -32,0 -46,5 -64,26 -43,51 -33,60 60,53 45,-4 92,-4 104,-1 46,12 37,117 -15,175 -39,43 -103,50 -152,17 z m 102,-65 c 10,-9 18,-27 18,-40 0,-22 -3,-23 -65,-23 -74,0 -83,13 -40,55 28,29 61,32 87,8 z"
         id="path899"
         style="stroke-width:110;stroke-dasharray:none" /><path
         d="m 5416,5318 c -3,-13 -6,-63 -6,-113 0,-49 -7,-148 -15,-219 -8,-72 -12,-132 -10,-135 3,-2 55,-9 117,-14 175,-15 161,-17 169,23 4,19 5,38 3,42 -3,5 -51,8 -106,8 h -101 l 7,108 c 4,59 11,139 16,177 5,39 10,87 10,108 0,36 -1,37 -39,37 -32,0 -40,-4 -45,-22 z"
         id="path901"
         style="stroke-width:110;stroke-dasharray:none" /><path
         d="m 5757,5284 c -4,-4 -7,-25 -7,-46 0,-37 1,-38 35,-38 33,0 35,2 35,35 0,19 1,38 3,43 3,9 -57,15 -66,6 z"
         id="path903"
         style="stroke-width:110;stroke-dasharray:none" /><path
         d="m 5878,5248 c -5,-48 4,-60 42,-56 22,3 25,8 28,46 2,29 -1,42 -10,42 -7,0 -23,3 -34,6 -19,5 -22,1 -26,-38 z"
         id="path905"
         style="stroke-width:110;stroke-dasharray:none" /><path
         d="m 4420,5218 c 0,-35 -7,-106 -15,-158 -8,-52 -10,-99 -6,-103 5,-5 21,-7 37,-5 29,3 29,4 44,112 13,91 19,111 39,127 28,23 64,24 85,3 20,-19 20,-19 0,-150 -13,-89 -13,-108 -2,-115 16,-11 58,-12 58,-1 0,4 7,52 15,107 20,140 19,187 -5,212 -30,33 -74,38 -121,14 -49,-26 -49,-26 -49,-1 0,17 -7,20 -40,20 h -40 z"
         id="path907"
         style="stroke-width:110;stroke-dasharray:none" /><path
         d="m 4819,5237 c -114,-57 -133,-253 -31,-322 47,-32 113,-33 161,-4 26,16 32,25 27,42 -3,12 -6,25 -6,30 0,4 -13,1 -30,-8 -45,-23 -97,-19 -125,10 -47,46 -36,54 78,57 l 102,3 3,55 c 5,116 -85,185 -179,137 z m 86,-72 c 14,-13 25,-33 25,-45 0,-18 -6,-20 -65,-20 -55,0 -65,3 -65,18 1,21 18,45 45,60 28,16 33,15 60,-13 z"
         id="path909"
         style="stroke-width:110;stroke-dasharray:none" /><path
         d="m 5044,5173 c 4,-21 0,-94 -8,-162 -8,-69 -13,-128 -10,-133 3,-4 18,-8 34,-8 27,0 29,3 35,48 26,202 28,207 85,197 33,-6 38,-4 44,17 13,49 8,68 -19,68 -15,0 -39,-7 -55,-15 -28,-15 -30,-14 -30,5 0,17 -6,20 -41,20 h -41 z"
         id="path911"
         style="stroke-width:110;stroke-dasharray:none" /><path
         d="m 6883,5171 c -17,-11 -36,-27 -41,-37 -9,-16 -10,-15 -16,4 -8,24 -22,27 -60,12 -23,-8 -24,-12 -15,-42 9,-28 38,-237 39,-276 0,-10 9,-12 33,-7 17,4 34,9 35,10 2,2 -2,53 -8,115 -12,104 -11,112 6,131 46,51 88,48 104,-9 6,-20 14,-77 18,-127 l 7,-90 38,-3 39,-3 -6,38 c -3,21 -8,65 -11,98 -4,33 -11,84 -16,112 -17,86 -76,116 -146,74 z"
         id="path913"
         style="stroke-width:110;stroke-dasharray:none" /><path
         d="m 6524,5150 c -47,-30 -78,-109 -71,-178 7,-64 32,-109 78,-140 79,-54 227,6 189,77 -10,20 -11,20 -47,-4 -50,-35 -87,-32 -126,7 l -32,32 98,16 c 106,17 121,27 112,73 -21,114 -118,170 -201,117 z m 106,-70 c 40,-40 26,-55 -60,-66 -46,-6 -50,-5 -50,13 0,31 38,73 66,73 13,0 33,-9 44,-20 z"
         id="path915"
         style="stroke-width:110;stroke-dasharray:none" /><path
         d="m 5759,5133 c -107,-90 -82,-290 41,-323 130,-35 233,135 164,271 -40,80 -141,106 -205,52 z m 130,-67 c 56,-59 25,-177 -47,-184 -49,-5 -82,36 -82,100 0,41 5,54 29,79 36,35 70,37 100,5 z"
         id="path917"
         style="stroke-width:110;stroke-dasharray:none" /><path
         d="m 6194,5091 c 9,-65 -1,-121 -29,-167 l -23,-37 -25,40 c -21,34 -27,56 -29,120 l -3,78 h -35 -35 l 1,-76 c 1,-68 5,-83 45,-160 40,-77 47,-84 74,-84 26,0 34,7 58,53 16,28 31,52 35,52 4,0 20,-25 36,-55 24,-47 33,-55 57,-55 25,0 32,9 73,91 42,83 46,97 46,164 0,41 -4,76 -10,80 -5,3 -21,3 -35,-1 -24,-6 -25,-9 -25,-78 0,-75 -29,-161 -51,-154 -6,2 -22,24 -36,48 -19,37 -23,57 -22,115 l 2,70 -38,3 -38,3 z"
         id="path919"
         style="stroke-width:110;stroke-dasharray:none" /></g><g
       id="g3144"
       inkscape:label="Lilie"><path
         d="M2195 4662 c-77 -1 -144 -7 -149 -12 -6 -6 -9 -48 -7 -95 l2 -85 -173 0 -173 0 -80 -80 c-43 -44 -77 -81 -74 -83 2 -3 119 -12 259 -22 140 -9 257 -18 261 -21 3 -2 9 -43 13 -91 4 -48 10 -100 13 -116 l6 -28 -39 22 c-22 12 -51 30 -65 40 -14 10 -70 40 -125 67 -181 88 -282 92 -355 13 -47 -53 -60 -96 -66 -227 -10 -218 59 -416 193 -550 48 -49 101 -63 161 -44 40 13 157 94 233 160 45 40 45 40 17 40 -40 0 -94 25 -107 50 -6 12 -22 71 -35 132 -26 125 -24 130 48 108 105 -31 167 -80 167 -132 0 -79 1 -79 114 -76 l101 3 6 53 c4 29 14 61 24 71 25 29 127 79 173 87 50 8 50 8 26 -117 -26 -137 -59 -178 -143 -179 -25 -1 -24 -2 19 -41 25 -22 73 -60 106 -84 139 -101 212 -108 290 -28 51 52 116 157 146 235 61 162 64 380 5 498 -70 142 -236 127 -526 -50 -46 -28 -85 -49 -86 -48 -3 4 22 228 26 233 2 2 108 11 234 19 127 9 246 19 265 22 l35 6 -83 79 -83 79 -176 0 -176 0 6 84 c5 61 4 86 -6 94 -18 14 -65 17 -222 14z"
         id="path921"
         style="fill:#003056;fill-opacity:1" /><path
         d="M2013 3376 c-68 -96 -125 -181 -129 -189 -4 -12 4 -18 33 -26 56 -16 63 -14 112 27 92 75 84 76 80 -8 l-4 -75 127 -3 127 -3 3 75 3 75 60 -50 c65 -53 78 -57 130 -35 l35 15 -128 185 -127 186 -100 0 -100 0 -122 -174z"
         id="path923"
         style="fill:#003056;fill-opacity:1" /></g></g></svg>
