<?xml version="1.0" encoding="UTF-8" standalone="no"?>
<svg
   id="dpsg_icon_c"
   width="30.273998"
   height="29.775595"
   viewBox="0 0 30.273998 29.775595"
   version="1.1"
   sodipodi:docname="safari-pinned-tab.svg"
   inkscape:export-filename="/mnt/ssdmirror/docker/wordpress/wordpress_data/wp-content/themes/bootscore-child-main/img/favicon/mstile-150x150.png"
   inkscape:export-xdpi="85.333336"
   inkscape:export-ydpi="85.333336"
   inkscape:version="1.1.1 (3bf5ae0d25, 2021-09-20, custom)"
   xmlns:inkscape="http://www.inkscape.org/namespaces/inkscape"
   xmlns:sodipodi="http://sodipodi.sourceforge.net/DTD/sodipodi-0.dtd"
   xmlns="http://www.w3.org/2000/svg"
   xmlns:svg="http://www.w3.org/2000/svg">
  <defs
     id="defs7" />
  <sodipodi:namedview
     id="namedview5"
     pagecolor="#ffffff"
     bordercolor="#666666"
     borderopacity="1.0"
     inkscape:pageshadow="2"
     inkscape:pageopacity="0.0"
     inkscape:pagecheckerboard="0"
     showgrid="false"
     height="36px"
     lock-margins="false"
     inkscape:zoom="3.7881139"
     inkscape:cx="17.818894"
     inkscape:cy="-23.890517"
     inkscape:window-width="2076"
     inkscape:window-height="1126"
     inkscape:window-x="59"
     inkscape:window-y="111"
     inkscape:window-maximized="0"
     inkscape:current-layer="dpsg_icon_c" />
  <g
     id="g826"
     transform="matrix(0.81879227,0,0,0.81879227,0.02292576,0.00325244)">
    <path
       id="Pfad_169"
       data-name="Pfad 169"
       d="m 18.475,0.6 c 0.272,0 3,-0.075 4.121,0.7 1.121,0.775 0.317,3.8 0.19,3.93 -0.372,0.378 7.826,0.15 7.985,0.173 0.159,0.023 3.538,3.553 3.178,3.713 -1.384,0.615 -11.085,0.977 -11.334,1.113 -0.249,0.136 -0.731,5.684 -0.731,6.054 0,0.338 7.123,-5.136 10.75,-5.3 2.481,-0.113 3.437,2.432 3.633,3.144 a 17.075,17.075 0 0 1 0.62,6.185 c -0.108,1.543 -1.153,7.6 -4.372,10.241 -0.837,0.685 -2.627,1.517 -3.965,0.725 A 66.258,66.258 0 0 1 22.6,26.6 c 0.862,-0.093 2.288,0.432 2.963,-0.028 1.023,-0.7 1.1,-5.169 1.246,-6.706 0.025,-0.257 -3.4,0.862 -4.01,1.292 a 4.4,4.4 0 0 0 -1.605,2.058 c -0.217,0.812 0.176,2.031 -0.174,2.031 h -5.087 c -0.349,0 0.043,-1.218 -0.174,-2.031 a 4.394,4.394 0 0 0 -1.6,-2.058 c -0.612,-0.43 -4.035,-1.549 -4.01,-1.292 0.148,1.537 0.223,6.01 1.246,6.706 0.676,0.46 2.1,-0.064 2.963,0.028 A 66.193,66.193 0 0 1 8.4,31.282 C 7.062,32.074 5.272,31.242 4.435,30.557 1.217,27.921 0.171,21.859 0.063,20.316 A 15.061,15.061 0 0 1 0.67,14.131 c 0.219,-0.714 1.166,-3.256 3.646,-3.144 3.628,0.165 10.75,5.639 10.75,5.3 0,-0.37 -0.482,-5.918 -0.731,-6.054 C 14.086,10.097 4.386,9.737 3,9.122 2.64,8.962 6.02,5.432 6.179,5.409 6.338,5.386 14.535,5.609 14.164,5.236 14.037,5.107 13.246,2.075 14.353,1.306 15.46,0.537 18.2,0.6 18.475,0.6"
       fill="#003056"
       fill-rule="evenodd"
       transform="translate(0,-0.602)" />
    <path
       id="Pfad_170"
       data-name="Pfad 170"
       d="m 125.084,301.26 c 0,0 -0.3,-0.009 2.349,-0.01 0.494,0 5.72,7.867 6.172,8.468 0.192,0.255 -1.4,0.849 -1.879,0.827 -0.873,-0.04 -3.181,-2.28 -3.458,-2.556 -0.277,-0.276 0.424,3.333 0.225,3.571 a 14.262,14.262 0 0 1 -6.817,0 c -0.2,-0.238 0.5,-3.849 0.226,-3.571 -0.274,0.278 -2.586,2.516 -3.458,2.556 -0.482,0.021 -2.071,-0.572 -1.879,-0.827 0.451,-0.6 5.67,-8.476 6.165,-8.468 2.356,0 2.356,0.01 2.356,0.01"
       fill="#003056"
       fill-rule="evenodd"
       transform="translate(-106.609,-275.612)" />
  </g>
</svg>
